# xmcd
#
# Track frame offsets:
#	183
#	10580
#	21538
#	33815
#	45000
#	54730
#	66175
#	79190
#	90643
#	102385
#	112843
#	125455
#	134768
#	143915
#	152590
#	161690
#	171168
#	182710
#	192430
#	203290
#
# Disc length: 2816 seconds
#
# Revision: 0
# Processed by: cddbd v1.5.2PL0 Copyright (c) Steve Scherf et al.
# Submitted via: audiograbber 1.83.01
#
DISCID=050afe14
DTITLE=Little Antony and The Imperials und Joey Dee and The Starliters - Hot Pastra
DTITLE=mi
DYEAR=1960
DGENRE=Doo-Wop
TTITLE0=Little Antony and The Imperials - Tears On My Pillow
TTITLE1=Little Antony and The Imperials - So Much
TTITLE2=Little Antony and The Imperials - Wishful Thinking
TTITLE3=Little Antony and The Imperials - A Prayer And A Jukebox
TTITLE4=Little Antony and The Imperials - Shimmy Shimmy Ko Ko Bop
TTITLE5=Little Antony and The Imperials - The Diary
TTITLE6=Little Antony and The Imperials - So Near And Yet So Far
TTITLE7=Little Antony and The Imperials - When You Wish Upon A Star
TTITLE8=Little Antony and The Imperials - Two People In The Word
TTITLE9=Little Antony and The Imperials - I'm Still In Love With You
TTITLE10=Little Antony and The Imperials - Please Say You Want Me
TTITLE11=Little Antony and The Imperials - Travelling Stranger
TTITLE12=Joey Dee and The Starliters - Peppermint Twist Part I
TTITLE13=Joey Dee and The Starliters - Peppermint Twist Part II
TTITLE14=Joey Dee and The Starliters - Hey Let's Twist
TTITLE15=Joey Dee and The Starliters - Roly Poly
TTITLE16=Joey Dee and The Starliters - Shout Part I
TTITLE17=Joey Dee and The Starliters - What Kind Of Love Is This?
TTITLE18=Joey Dee and The Starliters - Hot Pastrami With Mashed Potatoes Part I
TTITLE19=Joey Dee and The Starliters - Hot Pastrami With Mashed Potatoes Part II
EXTD=
EXTT0=
EXTT1=
EXTT2=
EXTT3=
EXTT4=
EXTT5=
EXTT6=
EXTT7=
EXTT8=
EXTT9=
EXTT10=
EXTT11=
EXTT12=
EXTT13=
EXTT14=
EXTT15=
EXTT16=
EXTT17=
EXTT18=
EXTT19=
PLAYORDER=
